<svg width="25" height="21" viewBox="0 0 25 21" fill="none" xmlns="http://www.w3.org/2000/svg">
<path d="M23.3871 -6.10352e-05H1.6129C1.18531 0.000499083 0.775384 0.170609 0.473027 0.472966C0.17067 0.775323 0.000560118 1.18525 0 1.61284V15.3225C0.000560118 15.7501 0.17067 16.16 0.473027 16.4624C0.775384 16.7648 1.18531 16.9349 1.6129 16.9354H9.92439L9.38659 18.5483H8.06452C7.95757 18.5483 7.85501 18.5908 7.77939 18.6664C7.70377 18.742 7.66129 18.8446 7.66129 18.9516V19.758H4.03226C3.92532 19.758 3.82275 19.8005 3.74713 19.8761C3.67151 19.9517 3.62903 20.0543 3.62903 20.1612C3.62903 20.2682 3.67151 20.3707 3.74713 20.4464C3.82275 20.522 3.92532 20.5645 4.03226 20.5645H21.7742C21.8811 20.5645 21.9837 20.522 22.0593 20.4464C22.1349 20.3707 22.1774 20.2682 22.1774 20.1612C22.1774 20.0543 22.1349 19.9517 22.0593 19.8761C21.9837 19.8005 21.8811 19.758 21.7742 19.758H17.3387V18.9516C17.3387 18.8446 17.2962 18.742 17.2206 18.6664C17.145 18.5908 17.0424 18.5483 16.9355 18.5483H15.6134L15.0756 16.9354H23.3871C23.8147 16.9349 24.2246 16.7648 24.527 16.4624C24.8293 16.16 24.9994 15.7501 25 15.3225V1.61284C24.9994 1.18525 24.8293 0.775323 24.527 0.472966C24.2246 0.170609 23.8147 0.000499083 23.3871 -6.10352e-05ZM16.5323 19.3548V19.758H8.46774V19.3548H16.5323ZM10.2369 18.5483L10.7747 16.9354H14.2253L14.7631 18.5483H10.2369ZM24.1935 15.3225C24.1933 15.5363 24.1082 15.7413 23.957 15.8925C23.8059 16.0436 23.6009 16.1287 23.3871 16.129H1.6129C1.3991 16.1287 1.19414 16.0436 1.04297 15.8925C0.891787 15.7413 0.806732 15.5363 0.806452 15.3225V14.5161H24.1935V15.3225ZM6.8377 10.0806L6.68649 13.7096H6.21673L6.06552 10.0806H6.8377ZM6.12097 9.27413L6.39012 7.66123H6.5131L6.78226 9.27413H6.12097ZM6.45161 6.85478C6.01462 6.85478 5.64516 6.30085 5.64516 5.6451C5.64516 5.23129 6.06754 4.62998 6.4506 4.20609C6.79587 4.58915 7.25806 5.20155 7.25806 5.6451C7.25806 6.30085 6.88861 6.85478 6.45161 6.85478ZM10.8397 6.04833L10.8871 6.14359V6.45155H9.27419V6.14359L9.32157 6.04833H10.8397ZM9.7248 5.24187L10.0806 4.53068L10.4365 5.24187H9.7248ZM10.8871 7.258V13.6592C10.8873 13.6761 10.8884 13.6929 10.8906 13.7096H9.27067C9.27286 13.6929 9.27404 13.6761 9.27419 13.6592V7.258H10.8871ZM14.5161 5.6451H15.7258V6.45155H15.3226C15.2156 6.45155 15.1131 6.49403 15.0375 6.56965C14.9618 6.64527 14.9194 6.74784 14.9194 6.85478C14.9194 6.96172 14.9618 7.06428 15.0375 7.1399C15.1131 7.21552 15.2156 7.258 15.3226 7.258H15.7258V8.06446H14.5161C14.4092 8.06446 14.3066 8.10694 14.231 8.18256C14.1554 8.25818 14.1129 8.36074 14.1129 8.46768C14.1129 8.57462 14.1554 8.67719 14.231 8.7528C14.3066 8.82842 14.4092 8.87091 14.5161 8.87091H15.7258V9.67736H15.3226C15.2156 9.67736 15.1131 9.71984 15.0375 9.79546C14.9618 9.87108 14.9194 9.97364 14.9194 10.0806C14.9194 10.1875 14.9618 10.2901 15.0375 10.3657C15.1131 10.4413 15.2156 10.4838 15.3226 10.4838H15.7258V11.2903H14.5161C14.4092 11.2903 14.3066 11.3327 14.231 11.4084C14.1554 11.484 14.1129 11.5865 14.1129 11.6935C14.1129 11.8004 14.1554 11.903 14.231 11.9786C14.3066 12.0542 14.4092 12.0967 14.5161 12.0967H15.7258V13.7096H12.9032V4.0322H15.7258V4.83865H14.5161C14.4092 4.83865 14.3066 4.88113 14.231 4.95675C14.1554 5.03237 14.1129 5.13493 14.1129 5.24187C14.1129 5.34882 14.1554 5.45138 14.231 5.527C14.3066 5.60262 14.4092 5.6451 14.5161 5.6451ZM19.3548 10.4838V13.6592C19.355 13.6761 19.3562 13.6929 19.3584 13.7096H17.7384C17.7406 13.6929 17.7418 13.6761 17.7419 13.6592V10.4838H19.3548ZM17.7419 9.67736V9.36939L18.5484 7.75649L19.3548 9.36939V9.67736H17.7419ZM24.1935 13.7096H20.1578C20.16 13.6929 20.1611 13.6761 20.1613 13.6592V9.27413C20.1612 9.21153 20.1467 9.14978 20.119 9.09369L18.9093 6.67433C18.8757 6.60737 18.8242 6.55107 18.7604 6.51172C18.6967 6.47237 18.6233 6.45154 18.5484 6.45154C18.4735 6.45154 18.4001 6.47237 18.3363 6.51172C18.2726 6.55107 18.2211 6.60737 18.1875 6.67433L16.9778 9.09369C16.95 9.14978 16.9355 9.21153 16.9355 9.27413V13.6592C16.9356 13.6761 16.9368 13.6929 16.939 13.7096H16.5323V3.62897C16.5323 3.52203 16.4898 3.41947 16.4142 3.34385C16.3385 3.26823 16.236 3.22575 16.129 3.22575H12.5C12.3931 3.22575 12.2905 3.26823 12.2149 3.34385C12.1393 3.41947 12.0968 3.52203 12.0968 3.62897V13.7096H11.69C11.6922 13.6929 11.6934 13.6761 11.6935 13.6592V6.04833C11.6935 5.98572 11.679 5.92398 11.6512 5.86788L10.4415 3.44853C10.408 3.38157 10.3564 3.32526 10.2927 3.28591C10.229 3.24657 10.1555 3.22573 10.0806 3.22573C10.0057 3.22573 9.93232 3.24657 9.86858 3.28591C9.80485 3.32526 9.75332 3.38157 9.71976 3.44853L8.51008 5.86788C8.48229 5.92398 8.4678 5.98572 8.46774 6.04833V13.6592C8.4679 13.6761 8.46908 13.6929 8.47127 13.7096H7.49345L7.66079 9.69399C7.66129 9.68492 7.66079 9.67585 7.66079 9.66627V9.65417C7.65985 9.63998 7.65817 9.62585 7.65575 9.61183V9.61083L7.28276 7.37242C7.75101 7.01909 8.06452 6.37696 8.06452 5.6451C8.06452 4.60881 6.86341 3.46113 6.72631 3.33361C6.6516 3.26435 6.55348 3.22588 6.45161 3.22588C6.34974 3.22588 6.25163 3.26435 6.17692 3.33361C6.03982 3.46113 4.83871 4.60881 4.83871 5.6451C4.83871 6.37696 5.15222 7.01909 5.62046 7.37242L5.24748 9.61083V9.61183C5.24506 9.62585 5.24337 9.63998 5.24244 9.65417V9.66627C5.24244 9.67585 5.24194 9.68492 5.24244 9.69399L5.40978 13.7096H0.806452V1.61284C0.806732 1.39904 0.891787 1.19408 1.04297 1.0429C1.19414 0.891726 1.3991 0.806671 1.6129 0.806391H23.3871C23.6009 0.806671 23.8059 0.891726 23.957 1.0429C24.1082 1.19408 24.1933 1.39904 24.1935 1.61284V13.7096Z" fill="black"/>
<path d="M4.4355 14.9193H2.01614C1.9092 14.9193 1.80664 14.9618 1.73102 15.0374C1.6554 15.113 1.61292 15.2156 1.61292 15.3225C1.61292 15.4295 1.6554 15.532 1.73102 15.6077C1.80664 15.6833 1.9092 15.7258 2.01614 15.7258H4.4355C4.54244 15.7258 4.645 15.6833 4.72062 15.6077C4.79624 15.532 4.83872 15.4295 4.83872 15.3225C4.83872 15.2156 4.79624 15.113 4.72062 15.0374C4.645 14.9618 4.54244 14.9193 4.4355 14.9193Z" fill="black"/>
<path d="M6.04839 14.9193H5.64517C5.53823 14.9193 5.43567 14.9618 5.36005 15.0374C5.28443 15.113 5.24194 15.2156 5.24194 15.3225C5.24194 15.4295 5.28443 15.532 5.36005 15.6077C5.43567 15.6833 5.53823 15.7258 5.64517 15.7258H6.04839C6.15534 15.7258 6.2579 15.6833 6.33352 15.6077C6.40914 15.532 6.45162 15.4295 6.45162 15.3225C6.45162 15.2156 6.40914 15.113 6.33352 15.0374C6.2579 14.9618 6.15534 14.9193 6.04839 14.9193Z" fill="black"/>
<path d="M10.0807 7.66125C9.97371 7.66125 9.87115 7.70374 9.79553 7.77936C9.71991 7.85498 9.67743 7.95754 9.67743 8.06448V12.5C9.67743 12.6069 9.71991 12.7095 9.79553 12.7851C9.87115 12.8607 9.97371 12.9032 10.0807 12.9032C10.1876 12.9032 10.2902 12.8607 10.3658 12.7851C10.4414 12.7095 10.4839 12.6069 10.4839 12.5V8.06448C10.4839 7.95754 10.4414 7.85498 10.3658 7.77936C10.2902 7.70374 10.1876 7.66125 10.0807 7.66125Z" fill="black"/>
<path d="M18.5484 10.887C18.4414 10.887 18.3389 10.9295 18.2632 11.0051C18.1876 11.0807 18.1451 11.1833 18.1451 11.2902V12.4999C18.1451 12.6069 18.1876 12.7094 18.2632 12.7851C18.3389 12.8607 18.4414 12.9032 18.5484 12.9032C18.6553 12.9032 18.7579 12.8607 18.8335 12.7851C18.9091 12.7094 18.9516 12.6069 18.9516 12.4999V11.2902C18.9516 11.1833 18.9091 11.0807 18.8335 11.0051C18.7579 10.9295 18.6553 10.887 18.5484 10.887Z" fill="black"/>
<path d="M2.01614 2.41931H5.24195C5.34889 2.41931 5.45145 2.37682 5.52707 2.3012C5.60269 2.22558 5.64517 2.12302 5.64517 2.01608C5.64517 1.90914 5.60269 1.80658 5.52707 1.73096C5.45145 1.65534 5.34889 1.61285 5.24195 1.61285H2.01614C1.9092 1.61285 1.80664 1.65534 1.73102 1.73096C1.6554 1.80658 1.61292 1.90914 1.61292 2.01608C1.61292 2.12302 1.6554 2.22558 1.73102 2.3012C1.80664 2.37682 1.9092 2.41931 2.01614 2.41931Z" fill="black"/>
<path d="M2.01614 3.62896H2.82259C2.92953 3.62896 3.0321 3.58648 3.10772 3.51086C3.18334 3.43524 3.22582 3.33268 3.22582 3.22574C3.22582 3.11879 3.18334 3.01623 3.10772 2.94061C3.0321 2.86499 2.92953 2.82251 2.82259 2.82251H2.01614C1.9092 2.82251 1.80664 2.86499 1.73102 2.94061C1.6554 3.01623 1.61292 3.11879 1.61292 3.22574C1.61292 3.33268 1.6554 3.43524 1.73102 3.51086C1.80664 3.58648 1.9092 3.62896 2.01614 3.62896Z" fill="black"/>
<path d="M21.3709 12.9032H22.9838C23.0908 12.9032 23.1933 12.8607 23.269 12.7851C23.3446 12.7095 23.3871 12.6069 23.3871 12.5C23.3871 12.393 23.3446 12.2905 23.269 12.2148C23.1933 12.1392 23.0908 12.0967 22.9838 12.0967H21.3709C21.264 12.0967 21.1614 12.1392 21.0858 12.2148C21.0102 12.2905 20.9677 12.393 20.9677 12.5C20.9677 12.6069 21.0102 12.7095 21.0858 12.7851C21.1614 12.8607 21.264 12.9032 21.3709 12.9032Z" fill="black"/>
<path d="M22.5807 11.6935H22.9839C23.0908 11.6935 23.1934 11.651 23.269 11.5754C23.3446 11.4998 23.3871 11.3972 23.3871 11.2902C23.3871 11.1833 23.3446 11.0807 23.269 11.0051C23.1934 10.9295 23.0908 10.887 22.9839 10.887H22.5807C22.4737 10.887 22.3712 10.9295 22.2955 11.0051C22.2199 11.0807 22.1774 11.1833 22.1774 11.2902C22.1774 11.3972 22.2199 11.4998 22.2955 11.5754C22.3712 11.651 22.4737 11.6935 22.5807 11.6935Z" fill="black"/>
</svg>
