<svg width="30" height="31" viewBox="0 0 30 31" fill="none" xmlns="http://www.w3.org/2000/svg">
<path d="M15 30.9985C23.2863 30.9985 30 24.2848 30 15.9985C30 7.71228 23.2863 0.998535 15 0.998535C6.71375 0.998535 0 7.71228 0 15.9985C0 24.2848 6.71375 30.9985 15 30.9985ZM6.86375 15.6735L21.3263 10.0973C21.9975 9.85478 22.5837 10.261 22.3662 11.276L22.3675 11.2748L19.905 22.876C19.7225 23.6985 19.2338 23.8985 18.55 23.511L14.8 20.7473L12.9912 22.4898C12.7912 22.6898 12.6225 22.8585 12.235 22.8585L12.5013 19.0423L19.4512 12.7635C19.7537 12.4973 19.3837 12.3473 18.985 12.6123L10.3963 18.0198L6.69375 16.8648C5.89 16.6098 5.8725 16.061 6.86375 15.6735V15.6735Z" fill="black"/>
</svg>
