<svg width="162" height="37" viewBox="0 0 162 37" fill="none" xmlns="http://www.w3.org/2000/svg">
<path fill-rule="evenodd" clip-rule="evenodd" d="M154.373 2.70789L161.139 2.74506C161.139 2.74506 148.56 19.7902 147.533 21.1794C147.199 21.6292 146.692 22.1144 146.435 22.7157C145.786 24.2276 145.119 27.5438 145.119 27.5438L138.928 27.5744C138.928 27.5744 139.891 24.1179 139.851 22.2767C139.816 20.6682 138.995 19.0618 138.535 17.4486C138.069 15.8159 137.437 12.6206 137.437 12.6206H143.802L144.68 16.1319L154.373 2.70789Z" fill="#1A1918"/>
<path fill-rule="evenodd" clip-rule="evenodd" d="M141.561 6.30259C142.81 7.05543 143.576 11.2075 143.576 11.2075C143.576 11.2075 137.043 11.3039 133.487 11.3039H130.415L126.684 27.5438H120.978C120.978 27.5438 124.529 9.89515 125.368 6.69543C125.64 5.65974 127.229 5.83726 129.912 5.83726H134.198C136.966 5.83726 140.201 5.48408 141.561 6.30259Z" fill="#1A1918"/>
<path fill-rule="evenodd" clip-rule="evenodd" d="M114.998 14.212C114.998 14.212 115.176 13.1695 114.395 11.9625C113.728 10.9333 113.111 10.6941 111.356 10.6393C106.398 10.4834 106.494 14.1572 106.494 14.1572L114.998 14.212ZM120.375 10.0051C121.102 12.6255 119.717 18.7832 119.717 18.7832C119.717 18.7832 112.485 18.6624 108.525 18.7832C107.293 18.8207 105.819 18.6494 105.452 19.2222C104.936 20.0253 105.641 21.2611 106.238 21.7831C106.925 22.3845 108.263 22.4526 108.744 22.514C111.959 22.9223 118.688 22.6193 118.688 22.6193L117.522 27.7807C117.522 27.7807 108.013 28.2572 103.257 27.1224C102.318 26.8987 101.438 26.4467 100.843 25.8057C100.681 25.6303 100.54 25.3912 100.387 25.1848C100.264 25.02 99.9066 24.4782 99.7461 24.05C98.6599 21.1555 99.8734 15.6099 101.063 12.6385C101.201 12.294 101.374 11.8574 101.557 11.4863C101.785 11.0234 101.978 10.5011 102.16 10.2244C102.283 10.0336 102.435 9.9106 102.562 9.73061C102.709 9.51777 102.88 9.31143 103.038 9.12741C103.477 8.61808 103.975 8.25808 104.574 7.81072C106.556 6.32704 110.142 5.17485 114.45 5.61602C116.072 5.7827 118.521 6.36205 119.717 8.03006C120.037 8.47557 120.195 9.35976 120.375 10.0051Z" fill="#1A1918"/>
<path fill-rule="evenodd" clip-rule="evenodd" d="M94.2048 5.81751L99.7373 5.78467C99.7373 5.78467 96.6541 20.4114 95.0828 27.5438H88.7184C84.2701 27.5438 80.3089 28.0947 78.6235 24.9101C76.9886 21.8182 78.5488 16.7333 79.2819 13.279C79.7999 10.8343 80.8907 5.83734 80.8907 5.83734L86.6228 5.78467C86.6228 5.78467 85.0031 13.5643 84.3293 17.4487C84.0879 18.84 83.5901 20.1502 84.1099 21.1794C84.6038 22.1584 85.295 22.2284 87.4017 22.2768C88.069 22.2923 90.2547 22.2768 90.2547 22.2768L94.2048 5.81751Z" fill="#1A1918"/>
<path fill-rule="evenodd" clip-rule="evenodd" d="M68.3091 16.3513C68.8884 14.293 69.7333 12.0611 69.6258 10.2066C69.5096 8.22285 67.8462 6.41666 66.773 6.03715C63.5405 4.89581 60.5143 6.49133 59.3116 7.79253C57.7554 9.4782 57.2287 11.4467 56.6779 14.1569C56.2677 16.1692 55.9319 18.2935 56.6779 19.8627C57.9989 22.6367 62.1181 22.0311 66.5534 22.0574C67.2117 20.293 67.7561 18.3112 68.3091 16.3513ZM75.9902 8.23153C76.6222 12.8269 74.1973 17.8988 72.5271 22.3096C74.2302 22.4633 75.7225 22.2857 75.83 22.4128C75.9419 22.5776 74.6887 27.6777 74.2518 27.6907C72.9001 27.726 68.4212 27.7632 66.5534 27.7632C60.4591 27.7632 54.7577 28.1603 51.8501 25.1298C50.6694 23.8986 49.8531 21.7872 49.6554 20.3017C49.3261 17.8217 49.7388 15.0916 50.3138 12.8403C50.8339 10.8079 51.501 8.88987 52.5085 7.13418C55.0694 2.66394 59.5244 -0.654123 66.9924 0.111726C68.4407 0.261055 70.5211 0.895235 71.8204 1.64776C71.9103 1.70074 72.2244 1.95076 72.2966 1.99475C74.0523 3.11192 75.6522 5.77814 75.9902 8.23153Z" fill="#1A1918"/>
<path fill-rule="evenodd" clip-rule="evenodd" d="M49.0256 5.84396C48.6569 7.52282 48.2882 9.42567 47.8997 11.0847H41.755C42.2311 9.24567 42.5955 7.41748 43.0717 5.81763C45.038 5.81763 46.8662 5.84396 49.0256 5.84396Z" fill="#1A1918"/>
<path fill-rule="evenodd" clip-rule="evenodd" d="M41.5356 12.6207H47.4607C46.6862 16.9091 45.1523 23.8262 43.9496 28.641C43.1968 31.6542 42.6943 33.8532 40.6576 35.4441C40.4754 35.5869 40.3704 35.5191 40.2189 35.6637C39.8434 36.0216 38.1076 36.4364 37.1465 36.5414C35.5838 36.7106 33.8173 36.5634 31.8971 36.5241C32.3996 34.6872 32.9681 32.4817 33.4158 30.8357C38.0967 31.402 38.2154 26.9776 39.1216 22.7159C39.6461 20.2535 41.2351 13.6084 41.5356 12.6207Z" fill="#1A1918"/>
<path fill-rule="evenodd" clip-rule="evenodd" d="M27.7097 23.8133L27.5827 24.1423C25.4187 28.3557 21.5848 30.9411 16.116 31.0551C13.5595 31.1078 11.1235 30.4519 9.53227 29.7384C6.09803 28.1956 3.20967 25.3342 1.63212 22.277C-0.630726 17.8944 -1.03875 11.798 3.66633 7.24438C3.73883 7.24438 3.09566 8.23175 3.16816 8.23175L3.03866 8.65309C-0.351897 19.2681 10.094 28.3647 20.2483 27.3244C22.6886 27.0744 25.8007 25.7378 27.7097 23.8133Z" fill="#21609B"/>
<path fill-rule="evenodd" clip-rule="evenodd" d="M21.565 19.4239C24.1197 19.4416 26.788 18.2476 28.3681 16.5712C26.9857 20.0804 22.983 22.3361 17.6149 21.6186C13.1205 21.0173 8.83892 16.4943 8.39775 11.9624C8.07524 8.66422 9.22494 6.69569 11.1191 4.30798C10.4608 5.55683 10.2148 6.52002 10.1534 7.13438C9.43375 14.269 15.8527 19.3867 21.565 19.4239Z" fill="#21609B"/>
<path fill-rule="evenodd" clip-rule="evenodd" d="M28.1116 10.5623C27.7144 11.4732 25.4277 13.1935 24.418 13.4085C20.4196 14.2602 17.8587 12.3642 16.5176 10.2067C16.318 9.88415 15.9494 9.00429 15.8834 8.7803C15.3632 7.01159 15.6024 4.33639 17.1542 2.95154C16.6867 4.26823 16.6186 5.79776 16.8645 6.79194C17.0136 7.39328 17.4677 8.4426 17.9222 9.10281C18.7494 10.3055 19.2739 10.5976 20.3363 11.2362C20.8146 11.5237 21.328 11.7542 21.5498 11.8177C22.557 12.1138 24.6835 12.8952 28.1116 10.5623Z" fill="#21609B"/>
</svg>
