<svg width="104" height="65" viewBox="0 0 104 65" fill="none" xmlns="http://www.w3.org/2000/svg">
<path d="M51.3662 64.814C51.014 64.814 50.6853 64.7183 50.3801 64.5508L47.2578 62.6607C46.7883 62.3976 47.023 62.3019 47.1639 62.254C47.7978 62.0387 47.9151 61.9908 48.5725 61.608C48.6429 61.5602 48.7368 61.5841 48.8072 61.632L51.2018 63.0914C51.2957 63.1392 51.4131 63.1392 51.4835 63.0914L60.8506 57.5647C60.9445 57.5169 60.9914 57.4212 60.9914 57.3016V46.2722C60.9914 46.1526 60.9445 46.0569 60.8506 46.009L51.4835 40.5063C51.3896 40.4584 51.2722 40.4584 51.2018 40.5063L41.8348 46.009C41.7409 46.0569 41.6939 46.1765 41.6939 46.2722V57.3016C41.6939 57.3973 41.7409 57.5169 41.8348 57.5647L44.3937 59.072C45.7788 59.7897 46.6474 58.9524 46.6474 58.115V47.2292C46.6474 47.0856 46.7648 46.9421 46.9291 46.9421H48.1264C48.2673 46.9421 48.4081 47.0617 48.4081 47.2292V58.115C48.4081 60.0051 47.3987 61.1056 45.6379 61.1056C45.098 61.1056 44.6754 61.1056 43.4781 60.5075L41.0131 59.072C40.4027 58.7131 40.0271 58.0432 40.0271 57.3255V46.2961C40.0271 45.5784 40.4027 44.9085 41.0131 44.5496L50.3801 39.0229C50.9671 38.688 51.7652 38.688 52.3522 39.0229L61.7192 44.5496C62.3296 44.9085 62.7052 45.5784 62.7052 46.2961V57.3255C62.7052 58.0432 62.3296 58.7131 61.7192 59.072L52.3522 64.5986C52.047 64.7422 51.6948 64.814 51.3662 64.814ZM54.2537 57.2298C50.1454 57.2298 49.3002 55.3158 49.3002 53.6889C49.3002 53.5453 49.4176 53.4018 49.582 53.4018H50.8027C50.9436 53.4018 51.061 53.4975 51.061 53.641C51.2488 54.9091 51.7887 55.5311 54.2772 55.5311C56.2492 55.5311 57.0944 55.0765 57.0944 53.9999C57.0944 53.3779 56.8596 52.9233 53.7842 52.6123C51.2253 52.3491 49.6289 51.7749 49.6289 49.6934C49.6289 47.7555 51.2253 46.6071 53.9016 46.6071C56.9066 46.6071 58.3856 47.6598 58.5734 49.9566C58.5734 50.0284 58.5499 50.1002 58.5029 50.1719C58.456 50.2198 58.3856 50.2676 58.3151 50.2676H57.0944C56.977 50.2676 56.8596 50.1719 56.8361 50.0523C56.5544 48.7364 55.8266 48.3058 53.9016 48.3058C51.7418 48.3058 51.4835 49.0714 51.4835 49.6456C51.4835 50.3394 51.7887 50.5547 54.6998 50.9375C57.5874 51.3203 58.949 51.8706 58.949 53.9281C58.9255 56.0335 57.2352 57.2298 54.2537 57.2298Z" fill="#539E43"/>
<path d="M22.3025 21.6775C22.3025 21.2468 22.0677 20.8401 21.6921 20.6248L11.7381 14.7871C11.5738 14.6914 11.386 14.6436 11.1982 14.6196H11.1043C10.9165 14.6196 10.7287 14.6914 10.5643 14.7871L0.610384 20.6248C0.234763 20.8401 0 21.2468 0 21.6775L0.0234763 37.3722C0.0234763 37.5875 0.140858 37.8029 0.328668 37.8986C0.516479 38.0182 0.751242 38.0182 0.915576 37.8986L6.8316 34.4534C7.20722 34.238 7.44199 33.8313 7.44199 33.4007V26.0557C7.44199 25.6251 7.67675 25.2184 8.05237 25.003L10.5643 23.5197C10.7521 23.4001 10.9634 23.3522 11.1747 23.3522C11.386 23.3522 11.5973 23.4001 11.7616 23.5197L14.2736 25.003C14.6492 25.2184 14.884 25.6251 14.884 26.0557V33.4007C14.884 33.8313 15.1187 34.238 15.4944 34.4534L21.4104 37.8986C21.5982 38.0182 21.833 38.0182 22.0208 37.8986C22.2086 37.8029 22.326 37.5875 22.326 37.3722L22.3025 21.6775Z" fill="#333333"/>
<path d="M70.1472 0.0732395C69.9594 -0.02246 69.7246 -0.02246 69.5603 0.0732395C69.3724 0.192864 69.2551 0.384263 69.2551 0.599587V16.1508C69.2551 16.2943 69.1846 16.4379 69.0438 16.5336C68.9029 16.6053 68.7621 16.6053 68.6212 16.5336L66.1327 15.0741C65.7571 14.8588 65.311 14.8588 64.9354 15.0741L54.9815 20.9357C54.6059 21.1511 54.3711 21.5578 54.3711 21.9884V33.6877C54.3711 34.1184 54.6059 34.5251 54.9815 34.7404L64.9354 40.602C65.311 40.8173 65.7571 40.8173 66.1327 40.602L76.0867 34.7404C76.4623 34.5251 76.697 34.1184 76.697 33.6877V4.52327C76.697 4.0687 76.4623 3.66197 76.0867 3.44665L70.1472 0.0732395ZM69.2316 29.8358C69.2316 29.9554 69.1846 30.0511 69.0907 30.099L65.6867 32.1087C65.5928 32.1565 65.4754 32.1565 65.3815 32.1087L61.9774 30.099C61.8835 30.0511 61.8366 29.9315 61.8366 29.8358V25.8164C61.8366 25.6968 61.8835 25.6011 61.9774 25.5532L65.3815 23.5436C65.4754 23.4957 65.5928 23.4957 65.6867 23.5436L69.0907 25.5532C69.1846 25.6011 69.2316 25.7207 69.2316 25.8164V29.8358Z" fill="#333333"/>
<path d="M103.272 25.7207C103.648 25.5053 103.859 25.0986 103.859 24.668V21.8209C103.859 21.3903 103.624 20.9835 103.272 20.7682L93.3887 14.9305C93.0131 14.7152 92.567 14.7152 92.1914 14.9305L82.2375 20.7921C81.8618 21.0075 81.6271 21.4142 81.6271 21.8448V33.5441C81.6271 33.9748 81.8618 34.3815 82.2375 34.5968L92.121 40.3388C92.4966 40.5541 92.9426 40.5541 93.2948 40.3388L99.2812 36.9414C99.4691 36.8457 99.5864 36.6304 99.5864 36.4151C99.5864 36.1998 99.4691 35.9844 99.2812 35.8887L89.2803 30.0271C89.0925 29.9075 88.9752 29.7161 88.9752 29.5008V25.8403C88.9752 25.625 89.0925 25.4096 89.2803 25.3139L92.4027 23.4956C92.5905 23.376 92.8253 23.376 93.0131 23.4956L96.1354 25.3139C96.3232 25.4336 96.4406 25.625 96.4406 25.8403V28.7113C96.4406 28.9266 96.558 29.1419 96.7458 29.2376C96.9336 29.3572 97.1684 29.3572 97.3562 29.2376L103.272 25.7207Z" fill="#333333"/>
<path d="M92.6374 25.1704C92.7079 25.1226 92.8018 25.1226 92.8722 25.1704L94.7738 26.2949C94.8442 26.3427 94.8912 26.4145 94.8912 26.5102V28.7591C94.8912 28.8548 94.8442 28.9266 94.7738 28.9745L92.8722 30.0989C92.8018 30.1468 92.7079 30.1468 92.6374 30.0989L90.7359 28.9745C90.6654 28.9266 90.6185 28.8548 90.6185 28.7591V26.5102C90.6185 26.4145 90.6654 26.3427 90.7359 26.2949L92.6374 25.1704Z" fill="#539E43"/>
<mask id="mask0_15_1923" style="mask-type:alpha" maskUnits="userSpaceOnUse" x="27" y="14" width="23" height="27">
<path d="M38.9472 14.9784C38.5716 14.7631 38.1255 14.7631 37.7499 14.9784L27.8664 20.7921C27.4908 21.0075 27.2795 21.4142 27.2795 21.8448V33.4963C27.2795 33.9269 27.5142 34.3336 27.8664 34.549L37.7499 40.3627C38.1255 40.578 38.5716 40.578 38.9472 40.3627L48.8307 34.549C49.2063 34.3336 49.4176 33.9269 49.4176 33.4963V21.8448C49.4176 21.4142 49.1829 21.0075 48.8307 20.7921L38.9472 14.9784Z" fill="white"/>
</mask>
<g mask="url(#mask0_15_1923)">
<path d="M38.9472 14.9784C38.5716 14.7631 38.1255 14.7631 37.7499 14.9784L27.8664 20.7921C27.4908 21.0075 27.2795 21.4142 27.2795 21.8448V33.4963C27.2795 33.9269 27.5142 34.3336 27.8664 34.549L37.7499 40.3627C38.1255 40.578 38.5716 40.578 38.9472 40.3627L48.8307 34.549C49.2063 34.3336 49.4176 33.9269 49.4176 33.4963V21.8448C49.4176 21.4142 49.1829 21.0075 48.8307 20.7921L38.9472 14.9784Z" fill="url(#paint0_linear_15_1923)"/>
<path d="M48.8542 20.7915L38.9237 14.9778C38.8298 14.9299 38.7124 14.8821 38.6185 14.8582L27.4907 34.2852C27.5846 34.4048 27.702 34.5005 27.8194 34.5723L37.7499 40.386C38.0316 40.5535 38.3602 40.6013 38.6654 40.5056L49.1124 21.0308C49.042 20.9351 48.9481 20.8633 48.8542 20.7915Z" fill="url(#paint1_linear_15_1923)"/>
<path fill-rule="evenodd" clip-rule="evenodd" d="M48.8776 34.5491C49.1593 34.3816 49.3706 34.0945 49.4645 33.7835L38.5715 14.835C38.2898 14.7872 37.9846 14.8111 37.7264 14.9786L27.8663 20.7684L38.5011 40.5303C38.642 40.5064 38.8063 40.4586 38.9471 40.3868L48.8776 34.5491Z" fill="url(#paint2_linear_15_1923)"/>
<path fill-rule="evenodd" clip-rule="evenodd" d="M48.8776 34.5488L38.9706 40.3625C38.8298 40.4343 38.6889 40.4822 38.5246 40.5061L38.7124 40.865L49.6993 34.3813V34.2378L49.4176 33.7593C49.3706 34.0942 49.1594 34.3813 48.8776 34.5488Z" fill="url(#paint3_linear_15_1923)"/>
<path fill-rule="evenodd" clip-rule="evenodd" d="M48.8776 34.5488L38.9706 40.3625C38.8298 40.4343 38.6889 40.4822 38.5246 40.5061L38.7124 40.865L49.6993 34.3813V34.2378L49.4176 33.7593C49.3706 34.0942 49.1594 34.3813 48.8776 34.5488Z" fill="url(#paint4_linear_15_1923)"/>
</g>
<defs>
<linearGradient id="paint0_linear_15_1923" x1="42.3751" y1="19.3123" x2="31.2472" y2="36.469" gradientUnits="userSpaceOnUse">
<stop stop-color="#41873F"/>
<stop offset="0.3288" stop-color="#418B3D"/>
<stop offset="0.6352" stop-color="#419637"/>
<stop offset="0.9319" stop-color="#3FA92D"/>
<stop offset="1" stop-color="#3FAE2A"/>
</linearGradient>
<linearGradient id="paint1_linear_15_1923" x1="36.8478" y1="29.0345" x2="64.2108" y2="14.447" gradientUnits="userSpaceOnUse">
<stop offset="0.1376" stop-color="#41873F"/>
<stop offset="0.4032" stop-color="#54A044"/>
<stop offset="0.7136" stop-color="#66B848"/>
<stop offset="0.9081" stop-color="#6CC04A"/>
</linearGradient>
<linearGradient id="paint2_linear_15_1923" x1="26.9184" y1="27.6711" x2="49.7883" y2="27.6711" gradientUnits="userSpaceOnUse">
<stop offset="0.0919165" stop-color="#6CC04A"/>
<stop offset="0.2864" stop-color="#66B848"/>
<stop offset="0.5968" stop-color="#54A044"/>
<stop offset="0.8624" stop-color="#41873F"/>
</linearGradient>
<linearGradient id="paint3_linear_15_1923" x1="26.9185" y1="37.3317" x2="49.7884" y2="37.3317" gradientUnits="userSpaceOnUse">
<stop offset="0.0919165" stop-color="#6CC04A"/>
<stop offset="0.2864" stop-color="#66B848"/>
<stop offset="0.5968" stop-color="#54A044"/>
<stop offset="0.8624" stop-color="#41873F"/>
</linearGradient>
<linearGradient id="paint4_linear_15_1923" x1="53.1202" y1="18.7614" x2="47.111" y2="49.6592" gradientUnits="userSpaceOnUse">
<stop stop-color="#41873F"/>
<stop offset="0.3288" stop-color="#418B3D"/>
<stop offset="0.6352" stop-color="#419637"/>
<stop offset="0.9319" stop-color="#3FA92D"/>
<stop offset="1" stop-color="#3FAE2A"/>
</linearGradient>
</defs>
</svg>
