<svg width="72" height="65" viewBox="0 0 72 65" fill="none" xmlns="http://www.w3.org/2000/svg">
<path d="M0.212097 32.4309C0.212097 37.861 5.48904 42.9303 13.8086 45.7876C12.1473 54.1917 13.5108 60.9654 18.0654 63.6048C22.747 66.3176 29.7215 64.4398 36.3412 58.6255C42.7938 64.2051 49.3154 66.4009 53.8657 63.754C58.5428 61.0333 59.9654 53.8003 58.2581 45.1338C66.9234 42.255 71.7705 37.9325 71.7705 32.4309C71.7705 27.1266 66.4837 22.5377 58.2764 19.6987C60.1144 10.6741 58.557 4.06477 53.8139 1.31635C49.2411 -1.3333 42.6438 0.976136 36.0962 6.70188C29.2846 0.624455 22.7524 -1.23106 18.0139 1.52537C13.4455 4.18256 12.1419 11.0793 13.8086 19.6391C5.76996 22.4553 0.212097 27.1479 0.212097 32.4309Z" fill="white"/>
<path d="M56.5382 22.518C55.8789 22.29 55.1958 22.0743 54.4924 21.8702C54.608 21.3961 54.7141 20.9282 54.8085 20.4682C56.3571 12.9148 55.3446 6.82974 51.8871 4.82628C48.5718 2.90523 43.1499 4.90823 37.6741 9.69671C37.1475 10.1572 36.6195 10.6447 36.0916 11.1556C35.74 10.8176 35.3888 10.4909 35.0386 10.1784C29.2998 5.05827 23.5475 2.90057 20.0934 4.90982C16.7813 6.83645 15.8004 12.557 17.1944 19.7154C17.329 20.4068 17.4864 21.1129 17.6643 21.8308C16.8502 22.063 16.0642 22.3106 15.3122 22.5739C8.58403 24.931 4.28711 28.6251 4.28711 32.4569C4.28711 36.4144 8.89986 40.3838 15.9078 42.7906C16.4608 42.9806 17.0347 43.1602 17.6261 43.3307C17.4341 44.1071 17.2671 44.868 17.127 45.6101C15.7978 52.6443 16.8358 58.2297 20.1391 60.1441C23.5511 62.1212 29.2774 60.089 34.8533 55.1914C35.2941 54.8043 35.7363 54.3937 36.1794 53.9634C36.7537 54.5191 37.3271 55.045 37.8975 55.5383C43.2984 60.2085 48.6328 62.0943 51.933 60.1745C55.3416 58.1917 56.4494 52.1917 55.0112 44.8916C54.9013 44.3341 54.7735 43.7645 54.63 43.1848C55.0321 43.0654 55.4269 42.9421 55.8118 42.8138C63.0972 40.3883 67.8374 36.4672 67.8374 32.4569C67.8374 28.6113 63.4019 24.8923 56.5382 22.518Z" fill="#53C1DE"/>
<path d="M54.958 40.2244C54.6105 40.34 54.254 40.4517 53.8906 40.56C53.0864 38.0015 52.0009 35.281 50.6725 32.4701C51.9401 29.7263 52.9836 27.0405 53.7654 24.4986C54.4155 24.6876 55.0465 24.887 55.6545 25.0974C61.5353 27.1316 65.1225 30.1393 65.1225 32.4568C65.1225 34.9254 61.2484 38.13 54.958 40.2244ZM52.3479 45.4214C52.9839 48.6493 53.0747 51.5678 52.6535 53.8493C52.275 55.8994 51.5138 57.2662 50.5726 57.8136C48.5699 58.9784 44.287 57.4643 39.668 53.4703C39.1385 53.0125 38.6051 52.5236 38.0701 52.0062C39.8607 50.0383 41.6504 47.7506 43.3971 45.2098C46.4693 44.9359 49.3718 44.4881 52.0039 43.8767C52.1336 44.4021 52.2487 44.9175 52.3479 45.4214ZM25.9528 57.6123C23.9961 58.3067 22.4377 58.3266 21.4956 57.7807C19.491 56.619 18.6577 52.1344 19.7944 46.1188C19.9246 45.4299 20.0796 44.7222 20.2582 43.9989C22.8615 44.5773 25.7428 44.9935 28.8223 45.2444C30.5807 47.7306 32.4221 50.0158 34.2777 52.0168C33.8722 52.4101 33.4684 52.7845 33.0668 53.1373C30.6012 55.303 28.1303 56.8395 25.9528 57.6123ZM16.7858 40.2093C13.687 39.145 11.1279 37.7618 9.37382 36.2525C7.79762 34.8961 7.00183 33.5495 7.00183 32.4568C7.00183 30.1316 10.4518 27.1657 16.2058 25.1499C16.904 24.9053 17.6349 24.6748 18.3933 24.4582C19.1885 27.0575 20.2317 29.7751 21.4906 32.5232C20.2154 35.3121 19.1574 38.073 18.3544 40.7028C17.8137 40.5466 17.2899 40.3823 16.7858 40.2093ZM19.8587 19.1915C18.6644 13.0583 19.4575 8.43169 21.4535 7.27071C23.5796 6.03392 28.2809 7.79732 33.236 12.2183C33.5527 12.5009 33.8707 12.7967 34.1895 13.1026C32.3431 15.0948 30.5186 17.3629 28.7758 19.8345C25.787 20.1128 22.926 20.56 20.2955 21.1588C20.1301 20.4903 19.9837 19.8335 19.8587 19.1915ZM47.2714 25.9931C46.6426 24.9016 45.997 23.836 45.3389 22.7995C47.3665 23.0571 49.3092 23.399 51.1336 23.8174C50.5859 25.5812 49.9032 27.4255 49.0996 29.3161C48.5231 28.2163 47.9134 27.1075 47.2714 25.9931ZM36.0925 15.0522C37.3448 16.4154 38.5988 17.9374 39.8322 19.5887C38.5893 19.5297 37.331 19.499 36.0622 19.499C34.8055 19.499 33.5564 19.529 32.3212 19.587C33.5559 17.951 34.8207 16.4311 36.0925 15.0522ZM24.8421 26.0119C24.214 27.1064 23.6156 28.2092 23.0482 29.314C22.2576 27.43 21.5812 25.5774 21.0288 23.7885C22.8419 23.3808 24.7755 23.0474 26.7902 22.7947C26.1228 23.8408 25.4719 24.9143 24.8421 26.0117V26.0119ZM26.8483 42.3135C24.7667 42.0802 22.804 41.764 20.9913 41.3675C21.5526 39.5467 22.2439 37.6545 23.0512 35.7299C23.6201 36.834 24.2209 37.9372 24.8528 39.0341H24.853C25.4967 40.1515 26.1637 41.2461 26.8483 42.3135ZM36.1677 50.0538C34.8809 48.6588 33.5975 47.1157 32.344 45.4558C33.5608 45.5038 34.8014 45.5283 36.0622 45.5283C37.3575 45.5283 38.6381 45.499 39.8984 45.4426C38.6609 47.1324 37.4114 48.6779 36.1677 50.0538ZM49.1255 35.6319C49.9749 37.5772 50.691 39.4595 51.2595 41.2493C49.4169 41.6717 47.4275 42.0119 45.3314 42.2647C45.9911 41.2142 46.6423 40.1303 47.2822 39.0153C47.9296 37.8873 48.5443 36.7576 49.1255 35.6319ZM44.9306 37.6525C43.9372 39.3833 42.9173 41.0355 41.882 42.5951C39.9962 42.7306 38.0479 42.8004 36.0622 42.8004C34.0846 42.8004 32.1609 42.7386 30.3084 42.6178C29.2313 41.0378 28.1893 39.3806 27.2022 37.6674H27.2024C26.218 35.9588 25.3119 34.2357 24.4909 32.5223C25.3117 30.805 26.2154 29.08 27.1942 27.3744L27.194 27.3748C28.1754 25.6647 29.2083 24.0156 30.2754 22.4455C32.1654 22.3019 34.1035 22.227 36.0621 22.227H36.0622C38.0297 22.227 39.9702 22.3025 41.8597 22.4473C42.9105 24.006 43.9364 25.6497 44.9217 27.36C45.9181 29.0895 46.8335 30.803 47.6613 32.4836C46.836 34.193 45.9227 35.9237 44.9306 37.6525ZM50.531 7.18956C52.6591 8.42271 53.4867 13.396 52.1496 19.9175C52.0643 20.3337 51.9683 20.7575 51.864 21.1871C49.2274 20.5758 46.3644 20.1209 43.3669 19.8383C41.6207 17.3396 39.8111 15.068 37.9947 13.1014C38.4831 12.6293 38.9707 12.1792 39.4563 11.7545C44.1481 7.65172 48.5331 6.03188 50.531 7.18956Z" fill="white"/>
<path d="M36.0622 26.7546C39.1963 26.7546 41.737 29.3076 41.737 32.4569C41.737 35.6061 39.1963 38.1591 36.0622 38.1591C32.9281 38.1591 30.3874 35.6061 30.3874 32.4569C30.3874 29.3076 32.9281 26.7546 36.0622 26.7546Z" fill="#53C1DE"/>
</svg>
