<svg width="25" height="24" viewBox="0 0 25 24" fill="none" xmlns="http://www.w3.org/2000/svg">
<path d="M0 -6.10352e-05V20.5204H8.02402V21.9876H6.55742V23.4525H18.4425V21.9876H16.9759V20.5204H25V-6.10352e-05H0ZM15.511 21.9876H9.48897V20.5204H15.511V21.9876H15.511ZM23.5351 19.0555H1.46489V16.1222H23.5351V19.0555H23.5351ZM23.5351 14.6573H1.46489V1.46488H23.5351V14.6573H23.5351Z" fill="black"/>
<path d="M9.95816 5.41334L8.92232 4.3775L5.23877 8.06105L8.92232 11.7445L9.95816 10.7087L7.31045 8.06105L9.95816 5.41334Z" fill="black"/>
<path d="M16.0777 4.3775L15.0419 5.41334L17.6896 8.06105L15.0419 10.7087L16.0777 11.7445L19.7612 8.06105L16.0777 4.3775Z" fill="black"/>
<path d="M12.6319 3.64399L10.9313 12.193L12.3681 12.4788L14.0687 3.9298L12.6319 3.64399Z" fill="black"/>
</svg>
