<svg width="46" height="66" viewBox="0 0 46 66" fill="none" xmlns="http://www.w3.org/2000/svg">
<path d="M22.9719 65.0015L4.18634 59.7807L0 12.7757H46.0001L41.8093 59.7737L22.9719 65.0015Z" fill="#4353AD"/>
<path d="M38.2216 56.781L41.8025 16.6193H22.9999V61.0055L38.2216 56.781Z" fill="#485FB5"/>
<path d="M23 49.025L22.9748 49.0315L16.5614 47.2979L16.1513 42.7001H10.3704L11.1772 51.752L22.9735 55.0303L23 55.023V49.025ZM8.55994 22.3842L9.0834 28.149H23V22.3842H8.55994ZM9.59707 34.0524L10.1131 39.8175H23V34.0524H9.59707Z" fill="#EDEDED"/>
<path d="M27.5654 0.00152874H34.5403V2.54052H30.4824V3.04855H34.5403V8.88818H27.5654V6.22199H31.6236V5.71435H27.5656V0.00152874H27.5654ZM19.1956 0.00152874H26.1703V2.54052H22.1124V3.04855H26.1703V8.88818H19.1958V6.22199H23.2538V5.71435H19.1955V0.00152874H19.1956ZM10.8259 0.00152874H17.8005V2.92134H13.7427V5.84156H17.8009V8.76137H10.8259V0.00152874Z" fill="#100F0D"/>
<path d="M36.3662 34.0526L37.4057 22.3844H22.9802V28.1492H31.0947L30.5708 34.0526H22.9802V39.8177H30.0715L29.4026 47.2946L22.98 49.0298V55.0276L34.7856 51.7522L34.872 50.7783L36.2257 35.6007L36.3662 34.0526Z" fill="white"/>
</svg>
