<svg width="46" height="66" viewBox="0 0 46 66" fill="none" xmlns="http://www.w3.org/2000/svg">
<path d="M4.16571 59.7807L0 12.7755H45.7746L41.6044 59.7733L22.8592 65.0015L4.16571 59.7807Z" fill="#E53D20"/>
<path d="M22.8873 61.0054L38.0343 56.7808L41.5981 16.6189H22.8873V61.0054Z" fill="#F15123"/>
<path d="M22.8873 34.0526H15.3044L14.7806 28.149H22.8873V22.384H22.8674H8.51782L8.65504 23.9306L10.0635 39.8174H22.8873V34.0526Z" fill="#EDEDED"/>
<path d="M22.8873 49.0246L22.8622 49.0314L16.4802 47.2977L16.072 42.6999H12.9709H10.3195L11.1224 51.7518L22.8609 55.03L22.8873 55.0227V49.0246Z" fill="#EDEDED"/>
<path d="M4.25879 0.00150585H7.17102V2.89602H9.8349V0.00150585H12.7473V8.76685H9.83502V5.83175H7.17114V8.76685H4.259V0.00150585H4.25879Z" fill="#100F0D"/>
<path d="M16.5769 2.90824H14.0131V0.00150585H22.0541V2.90824H19.4892V8.76685H16.5771V2.90824H16.5769Z" fill="#100F0D"/>
<path d="M23.3303 0.00150585H26.3669L28.2348 3.08136L30.1009 0.00150585H33.1386V8.76685H30.2384V4.42225L28.2348 7.53885H28.1848L26.1799 4.42225V8.76685H23.3303V0.00150585Z" fill="#100F0D"/>
<path d="M34.588 0.00150585H37.501V5.86956H41.5963V8.76685H34.588V0.00150585Z" fill="#100F0D"/>
<path d="M22.8675 34.0525V39.8174H29.9239L29.2588 47.2942L22.8675 49.0296V55.0273L34.6153 51.7519L34.7015 50.7779L36.0482 35.6005L36.1879 34.0525H34.6437H22.8675Z" fill="white"/>
<path d="M22.8675 22.384V28.149H36.691H36.7094L36.8243 26.8532L37.0854 23.9306L37.2224 22.384H22.8675Z" fill="white"/>
</svg>
