<svg width="65" height="66" viewBox="0 0 65 66" fill="none" xmlns="http://www.w3.org/2000/svg">
<path d="M0 0.00146484H65V65.0015H0V0.00146484Z" fill="#F7DF1E"/>
<path d="M17.0909 54.3202L22.0651 51.3099C23.0248 53.0114 23.8977 54.451 25.9917 54.451C27.9988 54.451 29.2643 53.6658 29.2643 50.6118V29.8428H35.3726V50.6982C35.3726 57.0249 31.6641 59.9046 26.2535 59.9046C21.3671 59.9046 18.5306 57.3738 17.0908 54.3197" fill="black"/>
<path d="M38.6905 53.6656L43.6641 50.7859C44.9734 52.924 46.675 54.4947 49.6855 54.4947C52.2164 54.4947 53.8304 53.2292 53.8304 51.4839C53.8304 49.3896 52.1725 48.6478 49.38 47.4265L47.8533 46.7715C43.4462 44.8957 40.5227 42.5396 40.5227 37.5655C40.5227 32.9841 44.0132 29.4934 49.4675 29.4934C53.3507 29.4934 56.1432 30.8461 58.15 34.3804L53.3941 37.4344C52.3469 35.5584 51.2128 34.8168 49.4676 34.8168C47.6786 34.8168 46.5441 35.9512 46.5441 37.4344C46.5441 39.267 47.6786 40.009 50.2963 41.1435L51.8233 41.7979C57.0155 44.0233 59.939 46.2919 59.939 51.3967C59.939 56.8946 55.6195 59.9049 49.8165 59.9049C44.1444 59.9049 40.4792 57.1999 38.6906 53.6656" fill="black"/>
</svg>
