<svg width="160" height="45" viewBox="0 0 160 45" fill="none" xmlns="http://www.w3.org/2000/svg">
<path fill-rule="evenodd" clip-rule="evenodd" d="M148.973 18.5747C148.829 18.6032 148.685 18.9162 148.685 19.0868C148.656 20.2244 148.627 23.2395 148.627 25.2873C148.627 25.3443 148.713 25.4579 148.8 25.4579C149.232 25.4864 150.271 25.5148 151.165 25.5148C152.405 25.5148 153.126 25.3443 153.529 25.1737C154.567 24.6617 155.058 23.5522 155.058 22.3291C155.058 19.5703 153.097 18.5178 150.184 18.5178C149.982 18.4896 149.406 18.4896 148.973 18.5747ZM156.413 31.2888C156.413 28.473 154.308 26.9085 150.501 26.9085C150.328 26.9085 149.117 26.88 148.829 26.937C148.742 26.9655 148.627 27.0224 148.627 27.1078C148.627 29.1271 148.598 32.3413 148.685 33.5926C148.742 34.1331 149.146 34.9011 149.636 35.1286C150.155 35.4131 151.338 35.4698 152.145 35.4698C154.423 35.4698 156.413 34.2185 156.413 31.2888ZM143.09 17.0105C143.378 17.0105 144.244 17.0957 146.464 17.0957C148.569 17.0957 150.242 17.039 152.289 17.039C154.798 17.039 158.259 17.9206 158.259 21.6181C158.259 23.4386 156.961 24.8892 155.26 25.6003C155.173 25.6287 155.173 25.6854 155.26 25.7139C157.682 26.3113 159.816 27.7904 159.816 30.5777C159.816 33.3084 158.086 35.0432 155.577 36.1242C154.048 36.7783 152.145 37.0058 150.213 37.0058C148.742 37.0058 144.792 36.8353 142.6 36.8922C142.369 36.8068 142.802 35.7828 143.003 35.6122C143.523 35.5837 143.926 35.5552 144.474 35.3846C145.253 35.1856 145.339 34.9581 145.455 33.7919C145.512 32.7964 145.512 29.2692 145.512 26.7664C145.512 23.3247 145.541 20.9924 145.512 19.8548C145.484 18.9731 145.166 18.6886 144.532 18.5178C144.042 18.4326 143.234 18.3187 142.571 18.2336C142.427 18.0912 142.917 17.1241 143.09 17.0105ZM126.45 34.702C127.143 35.2423 128.498 35.4698 129.709 35.4698C131.267 35.4698 132.824 35.1856 134.323 33.8486C135.852 32.4834 136.919 30.3787 136.919 27.0224C136.919 23.8082 135.679 21.1915 133.141 19.6557C131.699 18.7738 129.853 18.4042 127.719 18.4042C127.085 18.4042 126.479 18.4326 126.104 18.6032C126.018 18.6602 125.816 18.9162 125.816 19.0583C125.758 19.6272 125.758 24.0073 125.758 26.5673C125.758 29.2126 125.758 32.91 125.816 33.3366C125.816 33.7634 126.018 34.4176 126.45 34.702ZM119.904 17.0105C120.452 17.0105 122.557 17.0957 123.567 17.0957C125.383 17.0957 126.681 17.0105 130.113 17.0105C132.997 17.0105 135.419 17.7785 137.149 19.2289C139.254 21.0209 140.35 23.4955 140.35 26.5104C140.35 30.8053 138.36 33.2799 136.371 34.702C134.381 36.1527 131.785 37.0058 128.094 37.0058C126.133 37.0058 122.759 36.9489 119.962 36.9204H119.933C119.789 36.6647 120.164 35.6691 120.394 35.6406C121.144 35.5552 121.346 35.5268 121.721 35.3846C122.326 35.1571 122.442 34.8442 122.529 33.7919C122.615 31.8293 122.586 29.4686 122.586 26.7949C122.586 24.8892 122.615 21.163 122.557 19.9684C122.471 18.9731 122.038 18.7171 121.173 18.5463C120.741 18.4611 120.164 18.3472 119.356 18.2621C119.241 18.0627 119.76 17.1811 119.904 17.0105Z" fill="#8E714E"/>
<path fill-rule="evenodd" clip-rule="evenodd" d="M85.0103 35.8112C84.2894 35.7258 83.7703 35.6121 83.1357 35.3277C83.0493 35.2707 82.905 34.9865 82.905 34.8726C82.8472 33.8771 82.8472 31.0328 82.8472 29.1271C82.8472 27.5911 82.5879 26.2543 81.9245 25.3157C81.1458 24.2348 80.0212 23.6091 78.5793 23.6091C77.3104 23.6091 75.6089 24.4626 74.1959 25.6572C74.167 25.6854 73.9363 25.8847 73.9652 25.5718C73.9652 25.2588 74.0229 24.6332 74.0518 24.2066C74.0807 23.8082 73.85 23.6091 73.85 23.6091C72.927 24.0642 70.3316 24.6616 69.38 24.7468C68.6879 24.8892 68.515 25.5433 69.2359 25.7708H69.2648C70.0432 25.9983 70.5623 26.2543 70.966 26.5104C71.2544 26.7379 71.2255 27.0508 71.2255 27.3068C71.2544 29.4401 71.2544 32.7109 71.168 34.503C71.1392 35.214 70.9373 35.4698 70.4182 35.5837L70.4757 35.5552C70.0721 35.6406 69.7548 35.7258 69.2645 35.7827C69.0915 35.9533 69.0915 36.8637 69.2645 37.0628C69.5818 37.0628 71.2544 36.9773 72.6388 36.9773C74.5421 36.9773 75.5226 37.0628 76.0128 37.0628C76.2146 36.8352 76.2724 35.9818 76.1569 35.7827C75.6089 35.7543 75.2053 35.6976 74.8305 35.5837C74.3114 35.4698 74.167 35.214 74.1382 34.6166C74.0807 33.109 74.0807 29.9236 74.0807 27.7619C74.0807 27.1645 74.2536 26.88 74.4266 26.7094C75.0898 26.1407 76.1569 25.7423 77.1085 25.7423C78.0313 25.7423 78.637 26.0268 79.0984 26.3967C79.7328 26.9085 79.9346 27.648 80.0212 28.1885C80.1653 29.4116 80.1078 31.8293 80.1078 33.934C80.1078 35.0717 80.0212 35.3561 79.5887 35.4982C79.3869 35.5837 78.8677 35.6976 78.262 35.7543C78.0602 35.9533 78.1179 36.8352 78.262 37.0343C79.0984 37.0343 80.0789 36.9489 81.5208 36.9489C83.3086 36.9489 84.4623 37.0343 84.9237 37.0343C85.0678 36.8637 85.1255 36.0387 85.0101 35.8112H85.0103ZM92.9985 24.9461C91.47 24.9461 90.5183 26.1122 90.5183 27.9325C90.5183 29.7812 91.3545 31.9144 93.7194 31.9144C94.123 31.9144 94.8729 31.7438 95.2188 31.3457C95.7668 30.8337 96.1418 29.8097 96.1418 28.729C96.1418 26.3682 94.9592 24.9461 92.9985 24.9461ZM92.7964 37.5178C92.2198 37.5178 91.8159 37.6884 91.5566 37.8308C90.3451 38.5985 89.7974 39.3381 89.7974 40.22C89.7974 41.0447 90.1144 41.6988 90.8068 42.2678C91.6429 42.9788 92.7964 43.3203 94.2671 43.3203C97.2086 43.3203 98.5064 41.7558 98.5064 40.22C98.5064 39.139 97.9585 38.4279 96.8339 38.0298C96.0263 37.6884 94.5556 37.5178 92.7964 37.5178ZM92.9985 44.913C91.2393 44.913 89.9703 44.5431 88.8746 43.7184C87.8075 42.9219 87.3461 41.7273 87.3461 40.9026C87.3461 40.675 87.4039 40.0491 87.923 39.4804C88.24 39.139 88.9321 38.4849 90.5761 37.3757C90.6335 37.3472 90.6624 37.3188 90.6624 37.2618C90.6624 37.2049 90.6047 37.1479 90.5472 37.1197C89.1917 36.6077 88.788 35.7827 88.6725 35.3277V35.2707C88.6439 35.1001 88.5862 34.9295 88.8457 34.7587C89.0476 34.6166 89.336 34.446 89.653 34.247C90.1433 33.9625 90.6624 33.6495 90.9797 33.3935C91.0375 33.3366 91.0374 33.2799 91.0374 33.2229C91.0374 33.166 90.9797 33.109 90.922 33.0808C88.9035 32.4264 87.8941 30.9474 87.8941 28.729C87.8941 27.2784 88.5573 25.9699 89.7396 25.1452C90.5472 24.5193 92.5657 23.7515 93.8924 23.7515H93.979C95.3342 23.7797 96.0841 24.0642 97.1509 24.4341C97.7278 24.6332 98.2758 24.7183 99.0256 24.7183C100.15 24.7183 100.64 24.3771 101.044 23.979C101.073 24.0357 101.131 24.1781 101.16 24.5477C101.188 24.9176 101.073 25.4579 100.784 25.8562C100.554 26.1689 100.035 26.3967 99.5158 26.3967H99.3715C98.8524 26.3398 98.6217 26.2828 98.6217 26.2828L98.5064 26.3398C98.4776 26.3967 98.5064 26.4534 98.5353 26.5388L98.5642 26.5958C98.6217 26.8518 98.7371 27.6195 98.7371 27.8189C98.7371 30.1511 97.7855 31.1749 96.7761 31.9429C95.7956 32.654 94.671 33.109 93.4021 33.2229C93.3732 33.2229 93.258 33.2229 92.9985 33.2514C92.8541 33.2514 92.6523 33.2799 92.6234 33.2799H92.5946C92.3639 33.3366 91.7873 33.621 91.7873 34.1046C91.7873 34.5312 92.0468 35.0432 93.2866 35.1286C93.5462 35.1571 93.8057 35.1571 94.0942 35.1856C95.7379 35.2992 97.7855 35.4416 98.7371 35.7543C100.064 36.2378 100.9 37.4039 100.9 38.7978C100.9 40.9026 99.3715 42.8652 96.8339 44.088C95.5938 44.6285 94.3537 44.913 92.9985 44.913ZM109.436 25.0882C108.83 25.0882 108.282 25.2303 107.879 25.5148C106.754 26.1974 106.177 27.5629 106.177 29.5537C106.177 33.2799 108.081 35.8966 110.791 35.8966C111.599 35.8966 112.233 35.6691 112.781 35.214C113.617 34.5312 114.05 33.166 114.05 31.2603C114.05 27.5629 112.176 25.0882 109.436 25.0882ZM109.955 37.2618C105.053 37.2618 103.294 33.7065 103.294 30.3787C103.294 28.0464 104.245 26.2543 106.148 24.9743C107.504 24.1496 109.119 23.6946 110.561 23.6946C114.309 23.6946 116.934 26.3398 116.934 30.1511C116.934 32.7394 115.896 34.7872 113.906 36.0387C112.954 36.6644 111.311 37.2618 109.955 37.2618H109.955ZM58.5658 25.0882C57.9601 25.0882 57.4124 25.2303 57.0084 25.5148C55.8839 26.1974 55.307 27.5629 55.307 29.5537C55.307 33.2799 57.2103 35.8966 59.9211 35.8966C60.7286 35.8966 61.363 35.6691 61.911 35.214C62.7471 34.5312 63.1799 33.166 63.1799 31.2603C63.1799 27.5629 61.3341 25.0882 58.5658 25.0882ZM59.0849 37.2618C54.1824 37.2618 52.4232 33.7065 52.4232 30.3787C52.4232 28.0464 53.3749 26.2543 55.2781 24.9743C56.6337 24.1496 58.2485 23.6946 59.6904 23.6946C63.4395 23.6946 66.0637 26.3398 66.0637 30.1511C66.0637 32.7394 65.0254 34.7872 63.0356 36.0387C62.1128 36.6644 60.4691 37.2618 59.0849 37.2618ZM26.1231 36.9773C26.0653 36.8922 26.0076 36.6362 26.0364 36.3232C26.0364 36.0957 26.0942 35.9533 26.1231 35.8966C26.7285 35.8112 27.0458 35.7258 27.3917 35.6406C27.9686 35.4982 28.1993 35.1856 28.2281 34.4745C28.3148 32.7679 28.3148 29.5252 28.2859 27.2784V27.2214C28.2859 26.9654 28.2859 26.6525 27.9686 26.4249C27.5072 26.1407 26.9592 25.8847 26.2383 25.6854C25.9787 25.6002 25.8058 25.4579 25.8346 25.2873C25.8346 25.1167 26.0076 24.9176 26.3826 24.8607C27.3343 24.7753 29.8141 24.1781 30.7946 23.7515C30.8524 23.8082 30.939 23.979 30.939 24.2066L30.9101 24.5193C30.8812 24.8322 30.8524 25.2021 30.8524 25.5718C30.8524 25.6854 30.9678 25.7708 31.0831 25.7708C31.1408 25.7708 31.1985 25.7423 31.2563 25.7139C33.1018 24.2917 34.7744 23.7797 35.6394 23.7797C37.0527 23.7797 38.1484 24.4341 38.9848 25.7993C39.0423 25.8847 39.1 25.9129 39.1867 25.9129C39.2444 25.9129 39.3307 25.8847 39.3596 25.8278C41.0611 24.5477 42.7625 23.7797 43.8871 23.7797C46.5691 23.7797 48.1553 25.7423 48.1553 29.0702C48.1553 30.0088 48.1553 31.2318 48.1264 32.3413C48.1264 33.3366 48.0976 34.247 48.0976 34.9011C48.0976 35.0432 48.2994 35.4982 48.6167 35.5837C49.0203 35.7827 49.5683 35.8681 50.2893 35.9818H50.3181C50.3759 36.1808 50.2604 36.9204 50.1452 37.0628C49.972 37.0628 49.7124 37.0628 49.4242 37.0343C48.8762 37.0058 48.0976 36.9773 47.2325 36.9773C45.4445 36.9773 44.5217 37.0058 43.6275 37.0628C43.5701 36.8352 43.5412 36.1526 43.6275 35.9818C44.1467 35.8966 44.4062 35.8112 44.7235 35.7258C45.3004 35.5552 45.4445 35.2992 45.4733 34.5596C45.4733 34.0194 45.5885 29.4116 45.4156 28.3021C45.2426 27.1645 44.3774 25.8278 42.4741 25.8278C41.7531 25.8278 40.6285 26.1122 39.5326 26.9369C39.4751 26.9939 39.4174 27.136 39.4174 27.2214V27.2499C39.5326 27.8471 39.5326 28.5299 39.5326 29.5822V31.4309C39.5326 32.7109 39.5037 33.9055 39.5326 34.8156C39.5326 35.4416 39.9076 35.5837 40.2249 35.6976C40.3979 35.7258 40.5131 35.7543 40.6574 35.7827C40.917 35.8397 41.1765 35.8966 41.5802 35.9818C41.6379 36.0957 41.6379 36.4653 41.5513 36.7783C41.5224 36.9489 41.4647 37.0343 41.4361 37.0628C40.4556 37.0343 39.4462 37.0058 37.9755 37.0058C37.543 37.0058 36.7931 37.0343 36.1585 37.0343C35.6394 37.0343 35.1492 37.0628 34.861 37.0628C34.8321 37.0058 34.7744 36.8067 34.7744 36.4938C34.7744 36.2378 34.8321 36.0387 34.8899 35.9818C35.0339 35.9533 35.1492 35.9251 35.2935 35.9251C35.6394 35.8681 35.9278 35.8112 36.2163 35.7543C36.7065 35.6121 36.8795 35.3561 36.9083 34.7305C36.995 33.3084 37.0813 29.241 36.8795 28.217C36.5336 26.5673 35.5819 25.7423 34.0534 25.7423C33.1595 25.7423 32.0347 26.1689 31.1119 26.8518C30.9678 26.9654 30.8524 27.2499 30.8524 27.5059V29.184C30.8524 31.2318 30.8524 33.7919 30.8812 34.9011C30.9101 35.2422 31.0253 35.6406 31.6888 35.7827C31.8329 35.8112 32.0636 35.8681 32.352 35.8966L32.8711 35.9818C32.9289 36.1526 32.9 36.8352 32.7845 37.0628C32.4961 37.0628 32.1502 37.0343 31.7463 37.0343C31.1408 37.0058 30.3621 36.9773 29.4971 36.9773C28.4877 36.9773 27.7668 37.0058 27.1899 37.0343C26.7863 36.9773 26.469 36.9773 26.1231 36.9773Z" fill="#442D22"/>
<path fill-rule="evenodd" clip-rule="evenodd" d="M10.9541 43.8038L9.77175 43.4055C9.77175 43.4055 9.9161 37.4609 7.75327 37.0343C6.31138 35.3846 7.98396 -32.9354 13.1746 36.8068C13.1746 36.8068 11.3869 37.6884 11.0696 39.196C10.7234 40.6751 10.9541 43.8038 10.9541 43.8038Z" fill="white"/>
<path fill-rule="evenodd" clip-rule="evenodd" d="M10.9541 43.8038L9.77175 43.4055C9.77175 43.4055 9.9161 37.4609 7.75327 37.0343C6.31138 35.3846 7.98396 -32.9354 13.1746 36.8068C13.1746 36.8068 11.3869 37.6884 11.0696 39.196C10.7234 40.6751 10.9541 43.8038 10.9541 43.8038Z" fill="#A6A385"/>
<path fill-rule="evenodd" clip-rule="evenodd" d="M11.5887 38.0581C11.5887 38.0581 21.9415 31.3456 19.5191 17.3799C17.1833 7.22592 11.675 3.89811 11.0696 2.61808C10.4064 1.70795 9.77176 0.115234 9.77176 0.115234L10.2045 28.3589C10.2045 28.3874 9.31038 37.0056 11.5887 38.0581Z" fill="white"/>
<path fill-rule="evenodd" clip-rule="evenodd" d="M11.5887 38.0581C11.5887 38.0581 21.9415 31.3456 19.5191 17.3799C17.1833 7.22592 11.675 3.89811 11.0696 2.61808C10.4064 1.70795 9.77176 0.115234 9.77176 0.115234L10.2045 28.3589C10.2045 28.3874 9.31038 37.0056 11.5887 38.0581Z" fill="#499D4A"/>
<path fill-rule="evenodd" clip-rule="evenodd" d="M9.16628 38.4279C9.16628 38.4279 -0.552162 31.8859 0.0247011 20.3667C0.572424 8.84724 7.43596 3.18717 8.76237 2.16314C9.62767 1.25302 9.65654 0.91159 9.71428 0.00146484C10.3197 1.28149 10.2045 19.1436 10.2909 21.2484C10.5504 29.3546 9.82949 36.8921 9.16628 38.4279Z" fill="white"/>
<path fill-rule="evenodd" clip-rule="evenodd" d="M9.16628 38.4279C9.16628 38.4279 -0.552162 31.8859 0.0247011 20.3667C0.572424 8.84724 7.43596 3.18717 8.76237 2.16314C9.62767 1.25302 9.65654 0.91159 9.71428 0.00146484C10.3197 1.28149 10.2045 19.1436 10.2909 21.2484C10.5504 29.3546 9.82949 36.8921 9.16628 38.4279Z" fill="#58AA50"/>
</svg>
