<svg width="30" height="31" viewBox="0 0 30 31" fill="none" xmlns="http://www.w3.org/2000/svg">
<path d="M25.6055 0.998535L4.39453 0.998535C1.97159 0.998535 0 2.97012 0 5.39307L0 26.604C0 29.0269 1.97159 30.9985 4.39453 30.9985L13.2422 30.9985L13.2422 20.3931L9.72656 20.3931L9.72656 15.1196H13.2422V11.5454C13.2422 8.63747 15.6077 6.27197 18.5156 6.27197L23.8477 6.27197V11.5454H18.5156L18.5156 15.1196H23.8477L22.9687 20.3931H18.5156V30.9985H25.6055C28.0284 30.9985 30 29.0269 30 26.604L30 5.39307C30 2.97012 28.0284 0.998535 25.6055 0.998535Z" fill="black"/>
</svg>
