<svg width="30" height="31" viewBox="0 0 30 31" fill="none" xmlns="http://www.w3.org/2000/svg">
<path d="M-9.01547e-07 10.3735L-4.09794e-07 21.6235C-1.83506e-07 26.8004 4.19812 30.9985 9.375 30.9985L20.625 30.9985C25.8019 30.9985 30 26.8004 30 21.6235L30 10.3735C30 5.19666 25.8019 0.998536 20.625 0.998536L9.375 0.998537C4.19812 0.998537 -1.12784e-06 5.19666 -9.01547e-07 10.3735ZM20.625 3.81104C24.2437 3.81104 27.1875 6.75479 27.1875 10.3735L27.1875 21.6235C27.1875 25.2423 24.2437 28.186 20.625 28.186L9.375 28.186C5.75625 28.186 2.8125 25.2423 2.8125 21.6235L2.8125 10.3735C2.8125 6.75479 5.75625 3.81104 9.375 3.81104L20.625 3.81104Z" fill="black"/>
<path d="M7.5 15.9985C7.5 20.1404 10.8581 23.4985 15 23.4985C19.1419 23.4985 22.5 20.1404 22.5 15.9985C22.5 11.8567 19.1419 8.49854 15 8.49854C10.8581 8.49854 7.5 11.8567 7.5 15.9985ZM19.6875 15.9985C19.6875 18.5823 17.5837 20.686 15 20.686C12.4144 20.686 10.3125 18.5823 10.3125 15.9985C10.3125 13.4148 12.4144 11.311 15 11.311C17.5837 11.311 19.6875 13.4148 19.6875 15.9985Z" fill="black"/>
<path d="M7.93685 7.93568C7.93685 7.38374 7.48942 6.93631 6.93748 6.93631C6.38554 6.93631 5.93811 7.38374 5.93811 7.93568C5.93811 8.48762 6.38554 8.93506 6.93748 8.93506C7.48942 8.93506 7.93685 8.48762 7.93685 7.93568Z" fill="black"/>
</svg>
